<svg width="184" height="40" viewBox="0 0 184 40" fill="none" xmlns="http://www.w3.org/2000/svg">
<path fill-rule="evenodd" clip-rule="evenodd" d="M6.5235 34.225C8.96683 36.6666 12.8935 36.6666 20.7502 36.6666C28.6068 36.6666 32.5352 36.6666 34.9752 34.225C37.4168 31.7866 37.4168 27.8566 37.4168 20C37.4168 12.1433 37.4168 8.21498 34.9752 5.77331C32.5368 3.33331 28.6068 3.33331 20.7502 3.33331C12.8935 3.33331 8.96516 3.33331 6.5235 5.77331C4.0835 8.21665 4.0835 12.1433 4.0835 20C4.0835 27.8566 4.0835 31.785 6.5235 34.225ZM16.5835 14.5833C15.5122 14.5833 14.4649 14.901 13.5742 15.4962C12.6834 16.0914 11.9891 16.9373 11.5791 17.9271C11.1692 18.9169 11.0619 20.006 11.2709 21.0567C11.4799 22.1074 11.9958 23.0726 12.7533 23.8301C13.5109 24.5877 14.476 25.1036 15.5268 25.3126C16.5775 25.5216 17.6666 25.4143 18.6564 25.0043C19.6461 24.5944 20.4921 23.9001 21.0873 23.0093C21.6825 22.1186 22.0002 21.0713 22.0002 20C22.0002 19.6685 22.1319 19.3505 22.3663 19.1161C22.6007 18.8817 22.9186 18.75 23.2502 18.75C23.5817 18.75 23.8996 18.8817 24.134 19.1161C24.3685 19.3505 24.5002 19.6685 24.5002 20C24.5002 21.5657 24.0359 23.0964 23.166 24.3982C22.2961 25.7001 21.0597 26.7148 19.6131 27.314C18.1665 27.9132 16.5747 28.07 15.039 27.7645C13.5033 27.4591 12.0927 26.7051 10.9856 25.5979C9.8784 24.4907 9.12441 23.0801 8.81895 21.5444C8.51348 20.0088 8.67026 18.417 9.26945 16.9704C9.86864 15.5238 10.8833 14.2874 12.1852 13.4175C13.4871 12.5476 15.0177 12.0833 16.5835 12.0833C16.915 12.0833 17.233 12.215 17.4674 12.4494C17.7018 12.6838 17.8335 13.0018 17.8335 13.3333C17.8335 13.6648 17.7018 13.9828 17.4674 14.2172C17.233 14.4516 16.915 14.5833 16.5835 14.5833ZM30.3335 20C30.3335 21.4366 29.7628 22.8143 28.747 23.8301C27.7312 24.846 26.3534 25.4166 24.9168 25.4166C24.5853 25.4166 24.2674 25.5483 24.0329 25.7828C23.7985 26.0172 23.6668 26.3351 23.6668 26.6666C23.6668 26.9982 23.7985 27.3161 24.0329 27.5505C24.2674 27.785 24.5853 27.9166 24.9168 27.9166C26.4826 27.9166 28.0132 27.4523 29.3151 26.5824C30.617 25.7126 31.6317 24.4761 32.2309 23.0296C32.8301 21.583 32.9868 19.9912 32.6814 18.4555C32.3759 16.9198 31.6219 15.5092 30.5148 14.4021C29.4076 13.2949 27.997 12.5409 26.4613 12.2354C24.9256 11.93 23.3338 12.0867 21.8873 12.6859C20.4407 13.2851 19.2043 14.2998 18.3344 15.6017C17.4645 16.9036 17.0002 18.4342 17.0002 20C17.0002 20.3315 17.1319 20.6494 17.3663 20.8839C17.6007 21.1183 17.9186 21.25 18.2502 21.25C18.5817 21.25 18.8996 21.1183 19.134 20.8839C19.3685 20.6494 19.5002 20.3315 19.5002 20C19.5002 18.5634 20.0708 17.1856 21.0867 16.1698C22.1025 15.154 23.4802 14.5833 24.9168 14.5833C26.3534 14.5833 27.7312 15.154 28.747 16.1698C29.7628 17.1856 30.3335 18.5634 30.3335 20Z" fill="#633CFF"/>
<path d="M61.9972 32.15V28.195L62.3435 28.265C62.1126 29.5483 61.4201 30.575 60.2658 31.345C59.1346 32.115 57.7726 32.5 56.1797 32.5C54.5638 32.5 53.1556 32.1267 51.9552 31.38C50.7778 30.61 49.866 29.5367 49.2196 28.16C48.5732 26.7833 48.25 25.1617 48.25 23.295C48.25 21.405 48.5847 19.76 49.2542 18.36C49.9237 16.96 50.8586 15.875 52.059 15.105C53.2826 14.335 54.7023 13.95 56.3182 13.95C58.0035 13.95 59.3655 14.3467 60.4043 15.14C61.4662 15.9333 62.0895 17.0183 62.2742 18.395L61.8933 18.43V6.95H67.0875V32.15H61.9972ZM57.8419 28.3C59.0654 28.3 60.058 27.8683 60.8198 27.005C61.5817 26.1183 61.9626 24.8583 61.9626 23.225C61.9626 21.5917 61.5701 20.3433 60.7852 19.48C60.0234 18.5933 59.0192 18.15 57.7726 18.15C56.5722 18.15 55.5795 18.5933 54.7946 19.48C54.0328 20.3667 53.6519 21.6267 53.6519 23.26C53.6519 24.8933 54.0328 26.1417 54.7946 27.005C55.5795 27.8683 56.5953 28.3 57.8419 28.3Z" fill="#333333"/>
<path d="M79.551 32.5C77.5887 32.5 75.8804 32.115 74.4261 31.345C72.9717 30.5517 71.8405 29.455 71.0326 28.055C70.2477 26.655 69.8552 25.045 69.8552 23.225C69.8552 21.3817 70.2477 19.7717 71.0326 18.395C71.8405 16.995 72.9602 15.91 74.3915 15.14C75.8227 14.3467 77.4849 13.95 79.3778 13.95C81.2016 13.95 82.7829 14.3233 84.1218 15.07C85.4608 15.8167 86.4996 16.855 87.2383 18.185C87.977 19.515 88.3464 21.0783 88.3464 22.875C88.3464 23.2483 88.3349 23.5983 88.3118 23.925C88.2887 24.2283 88.2541 24.52 88.2079 24.8H72.9025V21.335H84.0179L83.1176 21.965C83.1176 20.5183 82.7713 19.4567 82.0788 18.78C81.4093 18.08 80.4859 17.73 79.3086 17.73C77.9466 17.73 76.8846 18.1967 76.1228 19.13C75.3841 20.0633 75.0147 21.4633 75.0147 23.33C75.0147 25.15 75.3841 26.5033 76.1228 27.39C76.8846 28.2767 78.0158 28.72 79.5163 28.72C80.3474 28.72 81.063 28.58 81.6633 28.3C82.2635 28.02 82.7136 27.565 83.0137 26.935H87.8962C87.3191 28.6617 86.3265 30.0267 84.9183 31.03C83.5332 32.01 81.7441 32.5 79.551 32.5Z" fill="#333333"/>
<path d="M95.4302 32.15L88.47 14.3H94.0451L99.4816 30.96H96.5729L101.975 14.3H107.411L100.451 32.15H95.4302Z" fill="#333333"/>
<path d="M109.419 32.15V6.95H114.613V32.15H109.419Z" fill="#333333"/>
<path d="M118.752 32.15V14.3H123.946V32.15H118.752ZM118.579 11.92V6.25H124.119V11.92H118.579Z" fill="#333333"/>
<path d="M128.085 32.15V14.3H133.175V18.5H133.279V32.15H128.085ZM140.378 32.15V21.09C140.378 20.11 140.124 19.375 139.616 18.885C139.131 18.395 138.416 18.15 137.469 18.15C136.661 18.15 135.934 18.3367 135.288 18.71C134.664 19.0833 134.168 19.5967 133.799 20.25C133.452 20.9033 133.279 21.6733 133.279 22.56L132.829 18.255C133.406 16.9483 134.249 15.91 135.357 15.14C136.488 14.3467 137.873 13.95 139.512 13.95C141.475 13.95 142.975 14.51 144.014 15.63C145.053 16.7267 145.572 18.2083 145.572 20.075V32.15H140.378Z" fill="#333333"/>
<path d="M149.525 32.15V6.95H154.719V32.15H149.525ZM160.848 32.15L153.507 22.875L160.675 14.3H166.665L158.251 23.68L158.493 22.035L167.012 32.15H160.848Z" fill="#333333"/>
<path d="M175.493 32.5C172.908 32.5 170.853 31.975 169.33 30.925C167.806 29.875 166.975 28.4283 166.836 26.585H171.477C171.592 27.3783 171.984 27.985 172.654 28.405C173.346 28.8017 174.293 29 175.493 29C176.578 29 177.363 28.8483 177.848 28.545C178.356 28.2183 178.61 27.7633 178.61 27.18C178.61 26.7367 178.46 26.3983 178.16 26.165C177.883 25.9083 177.363 25.6983 176.602 25.535L173.762 24.94C171.661 24.4967 170.115 23.8317 169.122 22.945C168.129 22.035 167.633 20.8683 167.633 19.445C167.633 17.7183 168.291 16.3767 169.607 15.42C170.923 14.44 172.758 13.95 175.113 13.95C177.444 13.95 179.302 14.4283 180.688 15.385C182.073 16.3183 182.834 17.625 182.973 19.305H178.333C178.241 18.6983 177.917 18.2433 177.363 17.94C176.809 17.6133 176.024 17.45 175.009 17.45C174.085 17.45 173.393 17.59 172.931 17.87C172.492 18.1267 172.273 18.5 172.273 18.99C172.273 19.41 172.458 19.7483 172.827 20.005C173.196 20.2383 173.808 20.4483 174.662 20.635L177.848 21.3C179.626 21.6733 180.965 22.3733 181.865 23.4C182.788 24.4033 183.25 25.5933 183.25 26.97C183.25 28.72 182.569 30.085 181.207 31.065C179.868 32.0217 177.964 32.5 175.493 32.5Z" fill="#333333"/>
</svg>
